<svg id="Icon_Set" height="512" viewBox="0 0 256 256" width="512" xmlns="http://www.w3.org/2000/svg"><g><g><g><g><g><g><circle cx="128" cy="128" fill="#3193f3" r="113.633"/><circle cx="128" cy="128" fill="#ffe2e2" r="89.834"/><path d="m135.5 217.52c-2.47.21-4.97.31-7.5.31-49.61 0-89.83-40.22-89.83-89.83s40.22-89.83 89.83-89.83c2.53 0 5.03.1 7.5.31-46.1 3.81-82.33 42.44-82.33 89.52s36.23 85.71 82.33 89.52z" fill="#ffefee"/><path d="m217.83 128c0 49.61-40.22 89.83-89.83 89.83-2.53 0-5.03-.1-7.5-.31 46.1-3.81 82.33-42.44 82.33-89.52s-36.23-85.71-82.33-89.52c2.47-.21 4.97-.31 7.5-.31 49.61 0 89.83 40.22 89.83 89.83z" fill="#ffcfcf"/></g></g></g></g><g fill="#3193f3"><path d="m154.822 97.96h-53.643c-7.094 0-12.845-5.751-12.845-12.845 0-7.094 5.751-12.845 12.845-12.845h53.643c7.094 0 12.845 5.751 12.845 12.845 0 7.094-5.751 12.845-12.845 12.845z"/><path d="m154.822 140.845h-53.643c-7.094 0-12.845-5.751-12.845-12.845 0-7.094 5.751-12.845 12.845-12.845h53.643c7.094 0 12.845 5.751 12.845 12.845 0 7.094-5.751 12.845-12.845 12.845z"/><path d="m154.822 183.73h-53.643c-7.094 0-12.845-5.751-12.845-12.845 0-7.094 5.751-12.845 12.845-12.845h53.643c7.094 0 12.845 5.751 12.845 12.845 0 7.094-5.751 12.845-12.845 12.845z"/></g></g><g fill="#5f266d"><path d="m128 10.367c-64.863 0-117.633 52.77-117.633 117.633s52.77 117.633 117.633 117.633 117.633-52.77 117.633-117.633-52.77-117.633-117.633-117.633zm0 227.266c-60.452 0-109.633-49.181-109.633-109.633s49.181-109.633 109.633-109.633 109.633 49.181 109.633 109.633-49.181 109.633-109.633 109.633z"/><path d="m128 34.167c-51.74 0-93.833 42.094-93.833 93.833s42.093 93.833 93.833 93.833 93.834-42.094 93.834-93.833-42.094-93.833-93.834-93.833zm0 179.666c-47.329 0-85.833-38.505-85.833-85.833s38.504-85.833 85.833-85.833 85.834 38.505 85.834 85.833-38.505 85.833-85.834 85.833z"/><path d="m196.134 94.828c-.924-2.006-3.299-2.887-5.306-1.962-2.007.923-2.886 3.299-1.962 5.306.05.109 4.991 11.035 4.991 27.27 0 3.291-.207 6.613-.614 9.875-.274 2.192 1.28 4.191 3.473 4.465 2.201.274 4.192-1.288 4.465-3.473.449-3.59.677-7.247.677-10.868-.001-17.968-5.491-30.105-5.724-30.613z"/><path d="m195.221 146.633c-2.109-.661-4.354.512-5.013 2.621-.82 2.617-1.791 5.24-2.886 7.798-.869 2.031.073 4.382 2.104 5.251 2.031.868 4.382-.073 5.251-2.104 1.199-2.803 2.264-5.68 3.163-8.552.662-2.108-.511-4.353-2.619-5.014z"/><path d="m154.821 68.27h-53.643c-9.288 0-16.845 7.557-16.845 16.845 0 9.289 7.557 16.845 16.845 16.845h53.643c9.289 0 16.846-7.557 16.846-16.845s-7.557-16.845-16.846-16.845zm0 25.69h-53.643c-4.877 0-8.845-3.968-8.845-8.845s3.968-8.845 8.845-8.845h53.643c4.878 0 8.846 3.968 8.846 8.845s-3.968 8.845-8.846 8.845z"/><path d="m154.821 111.155h-53.643c-9.288 0-16.845 7.557-16.845 16.845s7.557 16.845 16.845 16.845h53.643c9.289 0 16.846-7.557 16.846-16.845s-7.557-16.845-16.846-16.845zm0 25.69h-53.643c-4.877 0-8.845-3.968-8.845-8.845s3.968-8.845 8.845-8.845h53.643c4.878 0 8.846 3.968 8.846 8.845s-3.968 8.845-8.846 8.845z"/><path d="m154.821 154.04h-53.643c-9.288 0-16.845 7.557-16.845 16.845s7.557 16.845 16.845 16.845h53.643c9.289 0 16.846-7.557 16.846-16.845s-7.557-16.845-16.846-16.845zm0 25.69h-53.643c-4.877 0-8.845-3.968-8.845-8.845s3.968-8.845 8.845-8.845h53.643c4.878 0 8.846 3.968 8.846 8.845s-3.968 8.845-8.846 8.845z"/></g></g></svg>